<svg width="1200" height="675" viewBox="0 0 1200 675" fill="none" xmlns="http://www.w3.org/2000/svg" role="img" aria-label="AI Subscription Usage Dashboard preview">
  <rect width="1200" height="675" fill="#F3F5F9"/>
  <rect x="0" y="0" width="210" height="675" fill="#FFFFFF"/>
  <rect x="24" y="26" width="42" height="42" rx="8" fill="#121826"/>
  <text x="36" y="52" fill="#FFFFFF" font-family="Inter,Arial" font-size="16" font-weight="800">AI</text>
  <text x="82" y="43" fill="#121826" font-family="Inter,Arial" font-size="16" font-weight="800">Usage Desk</text>
  <text x="82" y="62" fill="#667085" font-family="Inter,Arial" font-size="12">订阅号用量监控</text>
  <rect x="24" y="110" width="162" height="38" rx="8" fill="#EEF3FB"/>
  <text x="42" y="134" fill="#121826" font-family="Inter,Arial" font-size="14" font-weight="700">总览</text>
  <text x="42" y="184" fill="#667085" font-family="Inter,Arial" font-size="14" font-weight="700">账号</text>
  <text x="42" y="226" fill="#667085" font-family="Inter,Arial" font-size="14" font-weight="700">模型</text>
  <text x="42" y="268" fill="#667085" font-family="Inter,Arial" font-size="14" font-weight="700">数据源</text>
  <rect x="24" y="322" width="162" height="90" rx="8" fill="#F8FAFC" stroke="#D8DEE9"/>
  <text x="42" y="352" fill="#667085" font-family="Inter,Arial" font-size="12">固定成本</text>
  <text x="42" y="382" fill="#121826" font-family="Inter,Arial" font-size="22" font-weight="800">$40.00</text>
  <rect x="42" y="394" width="126" height="6" rx="3" fill="#E8EDF4"/>
  <rect x="42" y="394" width="126" height="6" rx="3" fill="#2F5FD0"/>

  <text x="250" y="48" fill="#2F5FD0" font-family="Inter,Arial" font-size="13" font-weight="800">2026 年 6 月周期</text>
  <text x="250" y="82" fill="#121826" font-family="Inter,Arial" font-size="30" font-weight="900">ChatGPT 与 Claude 订阅用量</text>
  <rect x="965" y="36" width="96" height="40" rx="8" fill="#2F5FD0"/>
  <text x="987" y="61" fill="#FFFFFF" font-family="Inter,Arial" font-size="14" font-weight="800">自动采集</text>
  <text x="1074" y="61" fill="#667085" font-family="Inter,Arial" font-size="13">上次采集：5 分钟前</text>

  <rect x="250" y="116" width="240" height="42" rx="8" fill="#FFFFFF" stroke="#D8DEE9"/>
  <rect x="254" y="120" width="78" height="34" rx="6" fill="#121826"/>
  <text x="279" y="142" fill="#FFFFFF" font-family="Inter,Arial" font-size="14" font-weight="800">全部</text>
  <text x="354" y="142" fill="#667085" font-family="Inter,Arial" font-size="14" font-weight="800">ChatGPT</text>
  <text x="434" y="142" fill="#667085" font-family="Inter,Arial" font-size="14" font-weight="800">Claude</text>

  <g>
    <rect x="250" y="180" width="210" height="108" rx="8" fill="#FFFFFF" stroke="#D8DEE9"/>
    <text x="266" y="210" fill="#667085" font-family="Inter,Arial" font-size="12" font-weight="800">模型调用数</text>
    <text x="266" y="250" fill="#121826" font-family="Inter,Arial" font-size="30" font-weight="900">11,827</text>
    <text x="266" y="274" fill="#667085" font-family="Inter,Arial" font-size="12">近 30 天 · 本地留存</text>
    <rect x="476" y="180" width="210" height="108" rx="8" fill="#FFFFFF" stroke="#D8DEE9"/>
    <text x="492" y="210" fill="#667085" font-family="Inter,Arial" font-size="12" font-weight="800">固定成本</text>
    <text x="492" y="250" fill="#121826" font-family="Inter,Arial" font-size="30" font-weight="900">$40.00</text>
    <text x="492" y="274" fill="#667085" font-family="Inter,Arial" font-size="12">使用价值 46.0x</text>
    <rect x="702" y="180" width="210" height="108" rx="8" fill="#FFFFFF" stroke="#D8DEE9"/>
    <text x="718" y="210" fill="#667085" font-family="Inter,Arial" font-size="12" font-weight="800">活跃订阅号</text>
    <text x="718" y="250" fill="#121826" font-family="Inter,Arial" font-size="30" font-weight="900">2</text>
    <text x="718" y="274" fill="#667085" font-family="Inter,Arial" font-size="12">近 30 天</text>
    <rect x="928" y="180" width="210" height="108" rx="8" fill="#FFFFFF" stroke="#D8DEE9"/>
    <text x="944" y="210" fill="#667085" font-family="Inter,Arial" font-size="12" font-weight="800">使用价值</text>
    <text x="944" y="250" fill="#2F5FD0" font-family="Inter,Arial" font-size="30" font-weight="900">$1,840</text>
    <text x="944" y="274" fill="#667085" font-family="Inter,Arial" font-size="12">Token 价格估算</text>
  </g>

  <rect x="250" y="312" width="888" height="320" rx="8" fill="#FFFFFF" stroke="#D8DEE9"/>
  <text x="268" y="342" fill="#121826" font-family="Inter,Arial" font-size="18" font-weight="900">5 小时窗口归因</text>
  <text x="268" y="365" fill="#667085" font-family="Inter,Arial" font-size="13">合并统计平台、模型、请求次数与 Token</text>
  <rect x="268" y="390" width="404" height="104" rx="8" fill="#F8FAFC" stroke="#E8EDF4"/>
  <text x="286" y="422" fill="#121826" font-family="Inter,Arial" font-size="14" font-weight="900">按请求次数</text>
  <rect x="286" y="440" width="350" height="10" rx="5" fill="#E8EDF4"/>
  <rect x="286" y="440" width="182" height="10" rx="5" fill="#10A37F"/>
  <text x="286" y="470" fill="#667085" font-family="Inter,Arial" font-size="12">ChatGPT · gpt-5.5 · 51%</text>
  <rect x="694" y="390" width="404" height="104" rx="8" fill="#F8FAFC" stroke="#E8EDF4"/>
  <text x="712" y="422" fill="#121826" font-family="Inter,Arial" font-size="14" font-weight="900">按 Token</text>
  <rect x="712" y="440" width="350" height="10" rx="5" fill="#E8EDF4"/>
  <rect x="712" y="440" width="346" height="10" rx="5" fill="#10A37F"/>
  <text x="712" y="470" fill="#667085" font-family="Inter,Arial" font-size="12">ChatGPT · gpt-5.5 · 99%</text>
  <rect x="268" y="516" width="830" height="84" rx="8" fill="#EEF3FB"/>
  <text x="286" y="548" fill="#121826" font-family="Inter,Arial" font-size="14" font-weight="800">建议：Token 主要来自未设置窗口阈值的平台，优先核对已设置 Token 阈值的账号。</text>
  <text x="286" y="574" fill="#42526E" font-family="Inter,Arial" font-size="13">请求最多：ChatGPT / gpt-5.5 · Token 最多：ChatGPT / gpt-5.5</text>
</svg>
